{
  "accessors": [
    {
      "bufferView": 2,
      "componentType": 5126,
      "count": 6957,
      "max": [
        0.9882675409317017,
        1.889871597290039,
        0.5857198238372803
      ],
      "min": [
        -0.9882869720458984,
        -0.28610682487487793,
        -0.485970139503479
      ],
      "type": "VEC3"
    },
    {
      "bufferView": 2,
      "byteOffset": 83484,
      "componentType": 5126,
      "count": 6957,
      "max": [
        0.9999653100967407,
        0.9998824000358582,
        0.9999949932098389
      ],
      "min": [
        -0.9999647736549377,
        -0.9999923706054688,
        -0.9999825954437256
      ],
      "type": "VEC3"
    },
    {
      "bufferView": 3,
      "componentType": 5126,
      "count": 6957,
      "max": [
        0.9992667436599731,
        0.9999402761459351,
        0.9998511075973511,
        1.0
      ],
      "min": [
        -1.0,
        -0.9999406337738037,
        -0.9999121427536011,
        -1.0
      ],
      "type": "VEC4"
    },
    {
      "bufferView": 1,
      "componentType": 5126,
      "count": 6957,
      "max": [
        0.998046875,
        0.7613688111305237
      ],
      "min": [
        0.0019531161524355412,
        0.001953130355104804
      ],
      "type": "VEC2"
    },
    {
      "bufferView": 0,
      "componentType": 5125,
      "count": 39438,
      "type": "SCALAR"
    },
    {
      "bufferView": 2,
      "byteOffset": 166968,
      "componentType": 5126,
      "count": 3679,
      "max": [
        0.9921324253082275,
        0.8584786057472229,
        0.5983165502548218
      ],
      "min": [
        -0.9921256899833679,
        -0.3083837032318115,
        -0.5033162832260132
      ],
      "type": "VEC3"
    },
    {
      "bufferView": 2,
      "byteOffset": 211116,
      "componentType": 5126,
      "count": 3679,
      "max": [
        0.9961220026016235,
        0.9999902248382568,
        0.9998562335968018
      ],
      "min": [
        -0.9969319701194763,
        -0.9999960660934448,
        -0.999944269657135
      ],
      "type": "VEC3"
    },
    {
      "bufferView": 3,
      "byteOffset": 111312,
      "componentType": 5126,
      "count": 3679,
      "max": [
        0.9999682903289795,
        0.998738706111908,
        0.9992865324020386,
        1.0
      ],
      "min": [
        -0.999991774559021,
        -0.9998787045478821,
        -0.9996408820152283,
        1.0
      ],
      "type": "VEC4"
    },
    {
      "bufferView": 1,
      "byteOffset": 55656,
      "componentType": 5126,
      "count": 3679,
      "max": [
        0.9980469346046448,
        0.7911901473999023
      ],
      "min": [
        0.001953118946403265,
        0.0019531190628185868
      ],
      "type": "VEC2"
    },
    {
      "bufferView": 0,
      "byteOffset": 157752,
      "componentType": 5125,
      "count": 21288,
      "type": "SCALAR"
    },
    {
      "bufferView": 2,
      "byteOffset": 255264,
      "componentType": 5126,
      "count": 1512,
      "max": [
        0.3019469082355499,
        0.8398382663726807,
        0.17292143404483795
      ],
      "min": [
        -0.3019469082355499,
        0.5140078067779541,
        -0.1484997570514679
      ],
      "type": "VEC3"
    },
    {
      "bufferView": 2,
      "byteOffset": 273408,
      "componentType": 5126,
      "count": 1512,
      "max": [
        0.9992077350616455,
        0.9922640919685364,
        0.9948557019233704
      ],
      "min": [
        -0.9992077350616455,
        -0.992263913154602,
        -0.9967979192733765
      ],
      "type": "VEC3"
    },
    {
      "bufferView": 3,
      "byteOffset": 170176,
      "componentType": 5126,
      "count": 1512,
      "max": [
        0.9999915361404419,
        0.9963321685791016,
        0.9972410202026367,
        1.0
      ],
      "min": [
        -0.9195816516876221,
        -0.9987941980361938,
        -0.9962848424911499,
        -1.0
      ],
      "type": "VEC4"
    },
    {
      "bufferView": 1,
      "byteOffset": 85088,
      "componentType": 5126,
      "count": 1512,
      "max": [
        0.9894837737083435,
        0.9980467557907104
      ],
      "min": [
        0.001953121623955667,
        0.001953121623955667
      ],
      "type": "VEC2"
    },
    {
      "bufferView": 0,
      "byteOffset": 242904,
      "componentType": 5125,
      "count": 8832,
      "type": "SCALAR"
    },
    {
      "bufferView": 2,
      "byteOffset": 291552,
      "componentType": 5126,
      "count": 495,
      "max": [
        0.20456865429878235,
        2.130378246307373,
        0.3267120122909546
      ],
      "min": [
        -0.2045687735080719,
        2.039918899536133,
        0.23625251650810242
      ],
      "type": "VEC3"
    },
    {
      "bufferView": 2,
      "byteOffset": 297492,
      "componentType": 5126,
      "count": 495,
      "max": [
        1.0,
        1.0,
        1.0
      ],
      "min": [
        -1.0,
        -1.0,
        -1.0
      ],
      "type": "VEC3"
    },
    {
      "bufferView": 3,
      "byteOffset": 194368,
      "componentType": 5126,
      "count": 495,
      "max": [
        1.0,
        0.9937677383422852,
        0.9999381303787231,
        1.0
      ],
      "min": [
        -0.5181103348731995,
        -0.9928925037384033,
        -0.9976767301559448,
        1.0
      ],
      "type": "VEC4"
    },
    {
      "bufferView": 1,
      "byteOffset": 97184,
      "componentType": 5126,
      "count": 495,
      "max": [
        0.9980468153953552,
        0.6848686933517456
      ],
      "min": [
        0.0019531234866008162,
        0.0019531233701854944
      ],
      "type": "VEC2"
    },
    {
      "bufferView": 0,
      "byteOffset": 278232,
      "componentType": 5125,
      "count": 2880,
      "type": "SCALAR"
    },
    {
      "bufferView": 2,
      "byteOffset": 303432,
      "componentType": 5126,
      "count": 9006,
      "max": [
        0.7479077577590942,
        2.2333953380584717,
        0.3904148042201996
      ],
      "min": [
        -0.747916042804718,
        1.1328214406967163,
        -0.4679871201515198
      ],
      "type": "VEC3"
    },
    {
      "bufferView": 2,
      "byteOffset": 411504,
      "componentType": 5126,
      "count": 9006,
      "max": [
        0.9996551871299744,
        0.9995359182357788,
        0.9999313354492188
      ],
      "min": [
        -0.9996273517608643,
        -0.998291552066803,
        -0.9999843239784241
      ],
      "type": "VEC3"
    },
    {
      "bufferView": 3,
      "byteOffset": 202288,
      "componentType": 5126,
      "count": 9006,
      "max": [
        1.0,
        0.9835047125816345,
        0.9997819662094116,
        1.0
      ],
      "min": [
        -1.0,
        -0.9845643043518066,
        -0.9999024868011475,
        -1.0
      ],
      "type": "VEC4"
    },
    {
      "bufferView": 1,
      "byteOffset": 101144,
      "componentType": 5126,
      "count": 9006,
      "max": [
        0.9916714429855347,
        0.998046875
      ],
      "min": [
        0.00195313710719347,
        0.00195313710719347
      ],
      "type": "VEC2"
    },
    {
      "bufferView": 0,
      "byteOffset": 289752,
      "componentType": 5125,
      "count": 52848,
      "type": "SCALAR"
    },
    {
      "bufferView": 2,
      "byteOffset": 519576,
      "componentType": 5126,
      "count": 931,
      "max": [
        -0.0790007933974266,
        1.4642937183380127,
        0.3620982766151428
      ],
      "min": [
        -0.19999897480010986,
        1.3431147336959839,
        0.24123039841651917
      ],
      "type": "VEC3"
    },
    {
      "bufferView": 2,
      "byteOffset": 530748,
      "componentType": 5126,
      "count": 931,
      "max": [
        0.9986514449119568,
        0.9999279379844666,
        0.9982432126998901
      ],
      "min": [
        -0.9976325631141663,
        -0.9998998641967773,
        -0.9981403350830078
      ],
      "type": "VEC3"
    },
    {
      "bufferView": 3,
      "byteOffset": 346384,
      "componentType": 5126,
      "count": 931,
      "max": [
        0.24650312960147858,
        0.9973174333572388,
        0.9976889491081238,
        1.0
      ],
      "min": [
        -0.8168991804122925,
        -0.9749736785888672,
        -0.9858831763267517,
        1.0
      ],
      "type": "VEC4"
    },
    {
      "bufferView": 1,
      "byteOffset": 173192,
      "componentType": 5126,
      "count": 931,
      "max": [
        0.9980468153953552,
        0.9570260643959045
      ],
      "min": [
        0.0019531244179233909,
        0.0019531245343387127
      ],
      "type": "VEC2"
    },
    {
      "bufferView": 0,
      "byteOffset": 501144,
      "componentType": 5125,
      "count": 5472,
      "type": "SCALAR"
    },
    {
      "bufferView": 2,
      "byteOffset": 541920,
      "componentType": 5126,
      "count": 931,
      "max": [
        0.19999897480010986,
        1.4642937183380127,
        0.3620982766151428
      ],
      "min": [
        0.0790007933974266,
        1.3431147336959839,
        0.24123039841651917
      ],
      "type": "VEC3"
    },
    {
      "bufferView": 2,
      "byteOffset": 553092,
      "componentType": 5126,
      "count": 931,
      "max": [
        0.9976325631141663,
        0.9999279379844666,
        0.9982432126998901
      ],
      "min": [
        -0.9986514449119568,
        -0.9998998641967773,
        -0.9981403350830078
      ],
      "type": "VEC3"
    },
    {
      "bufferView": 3,
      "byteOffset": 361280,
      "componentType": 5126,
      "count": 931,
      "max": [
        0.12516891956329346,
        0.9991097450256348,
        0.9970378279685974,
        1.0
      ],
      "min": [
        -0.9696872234344482,
        -0.9918592572212219,
        -0.99696946144104,
        1.0
      ],
      "type": "VEC4"
    },
    {
      "bufferView": 1,
      "byteOffset": 180640,
      "componentType": 5126,
      "count": 931,
      "max": [
        0.8663432598114014,
        0.9980469346046448
      ],
      "min": [
        0.0019531231373548508,
        0.0019531232537701726
      ],
      "type": "VEC2"
    },
    {
      "bufferView": 0,
      "byteOffset": 523032,
      "componentType": 5125,
      "count": 5472,
      "type": "SCALAR"
    }
  ],
  "asset": {
    "extras": {
      "author": "OSCAR CREATIVO (https://sketchfab.com/oscar_creativo)",
      "license": "CC-BY-4.0 (http://creativecommons.org/licenses/by/4.0/)",
      "source": "https://sketchfab.com/3d-models/cyber-geisha-by-oscar-creativo-b218bc4348a645bfa059e830dc146737",
      "title": "CYBER GEISHA By Oscar creativo"
    },
    "generator": "Sketchfab-12.66.0",
    "version": "2.0"
  },
  "bufferViews": [
    {
      "buffer": 0,
      "byteLength": 544920,
      "name": "floatBufferViews",
      "target": 34963
    },
    {
      "buffer": 0,
      "byteLength": 188088,
      "byteOffset": 544920,
      "byteStride": 8,
      "name": "floatBufferViews",
      "target": 34962
    },
    {
      "buffer": 0,
      "byteLength": 564264,
      "byteOffset": 733008,
      "byteStride": 12,
      "name": "floatBufferViews",
      "target": 34962
    },
    {
      "buffer": 0,
      "byteLength": 376176,
      "byteOffset": 1297272,
      "byteStride": 16,
      "name": "floatBufferViews",
      "target": 34962
    }
  ],
  "buffers": [
    {
      "byteLength": 1673448,
      "uri": "scene.bin"
    }
  ],
  "images": [
    {
      "uri": "textures/CIBER_GEISHA_2_baseColor.png"
    },
    {
      "uri": "textures/CIBER_GEISHA_2_metallicRoughness.png"
    },
    {
      "uri": "textures/CIBER_GEISHA_2_emissive.png"
    },
    {
      "uri": "textures/CIBER_GEISHA_2_normal.png"
    },
    {
      "uri": "textures/ROPA_1_baseColor.png"
    },
    {
      "uri": "textures/ROPA_1_metallicRoughness.png"
    },
    {
      "uri": "textures/ROPA_1_normal.png"
    },
    {
      "uri": "textures/COSAS_2_baseColor.png"
    },
    {
      "uri": "textures/COSAS_2_metallicRoughness.png"
    },
    {
      "uri": "textures/COSAS_2_normal.png"
    },
    {
      "uri": "textures/CILINDRO_1_baseColor.png"
    },
    {
      "uri": "textures/CILINDRO_1_metallicRoughness.png"
    },
    {
      "uri": "textures/CILINDRO_1_normal.png"
    },
    {
      "uri": "textures/PELO_1_baseColor.png"
    },
    {
      "uri": "textures/PELO_1_metallicRoughness.png"
    },
    {
      "uri": "textures/PELO_1_normal.png"
    },
    {
      "uri": "textures/OJO2_1_baseColor.png"
    },
    {
      "uri": "textures/OJO2_1_metallicRoughness.png"
    },
    {
      "uri": "textures/OJO2_1_normal.png"
    },
    {
      "uri": "textures/OJO3_1_baseColor.png"
    },
    {
      "uri": "textures/OJO3_1_metallicRoughness.png"
    },
    {
      "uri": "textures/OJO3_1_normal.png"
    }
  ],
  "materials": [
    {
      "doubleSided": true,
      "emissiveFactor": [
        1.0,
        1.0,
        1.0
      ],
      "emissiveTexture": {
        "index": 2
      },
      "name": "CIBER_GEISHA_2",
      "normalTexture": {
        "index": 3
      },
      "occlusionTexture": {
        "index": 1
      },
      "pbrMetallicRoughness": {
        "baseColorTexture": {
          "index": 0
        },
        "metallicRoughnessTexture": {
          "index": 1
        }
      }
    },
    {
      "doubleSided": true,
      "name": "ROPA_1",
      "normalTexture": {
        "index": 6
      },
      "pbrMetallicRoughness": {
        "baseColorTexture": {
          "index": 4
        },
        "metallicRoughnessTexture": {
          "index": 5
        }
      }
    },
    {
      "doubleSided": true,
      "name": "COSAS_2",
      "normalTexture": {
        "index": 9
      },
      "occlusionTexture": {
        "index": 8
      },
      "pbrMetallicRoughness": {
        "baseColorTexture": {
          "index": 7
        },
        "metallicRoughnessTexture": {
          "index": 8
        }
      }
    },
    {
      "doubleSided": true,
      "name": "CILINDRO_1",
      "normalTexture": {
        "index": 12
      },
      "pbrMetallicRoughness": {
        "baseColorTexture": {
          "index": 10
        },
        "metallicRoughnessTexture": {
          "index": 11
        }
      }
    },
    {
      "doubleSided": true,
      "name": "PELO_1",
      "normalTexture": {
        "index": 15
      },
      "pbrMetallicRoughness": {
        "baseColorTexture": {
          "index": 13
        },
        "metallicRoughnessTexture": {
          "index": 14
        }
      }
    },
    {
      "doubleSided": true,
      "name": "OJO2_1",
      "normalTexture": {
        "index": 18
      },
      "pbrMetallicRoughness": {
        "baseColorTexture": {
          "index": 16
        },
        "metallicRoughnessTexture": {
          "index": 17
        }
      }
    },
    {
      "doubleSided": true,
      "name": "OJO3_1",
      "normalTexture": {
        "index": 21
      },
      "pbrMetallicRoughness": {
        "baseColorTexture": {
          "index": 19
        },
        "metallicRoughnessTexture": {
          "index": 20
        }
      }
    }
  ],
  "meshes": [
    {
      "name": "CIBER_GEISHA_2_CIBER_GEISHA_2_0",
      "primitives": [
        {
          "attributes": {
            "NORMAL": 1,
            "POSITION": 0,
            "TANGENT": 2,
            "TEXCOORD_0": 3
          },
          "indices": 4,
          "material": 0,
          "mode": 4
        }
      ]
    },
    {
      "name": "ROPA_1_ROPA_1_0",
      "primitives": [
        {
          "attributes": {
            "NORMAL": 6,
            "POSITION": 5,
            "TANGENT": 7,
            "TEXCOORD_0": 8
          },
          "indices": 9,
          "material": 1,
          "mode": 4
        }
      ]
    },
    {
      "name": "COSAS_2_COSAS_2_0",
      "primitives": [
        {
          "attributes": {
            "NORMAL": 11,
            "POSITION": 10,
            "TANGENT": 12,
            "TEXCOORD_0": 13
          },
          "indices": 14,
          "material": 2,
          "mode": 4
        }
      ]
    },
    {
      "name": "CILINDRO_1_CILINDRO_1_0",
      "primitives": [
        {
          "attributes": {
            "NORMAL": 16,
            "POSITION": 15,
            "TANGENT": 17,
            "TEXCOORD_0": 18
          },
          "indices": 19,
          "material": 3,
          "mode": 4
        }
      ]
    },
    {
      "name": "PELO_1_PELO_1_0",
      "primitives": [
        {
          "attributes": {
            "NORMAL": 21,
            "POSITION": 20,
            "TANGENT": 22,
            "TEXCOORD_0": 23
          },
          "indices": 24,
          "material": 4,
          "mode": 4
        }
      ]
    },
    {
      "name": "OJO2_1_OJO2_1_0",
      "primitives": [
        {
          "attributes": {
            "NORMAL": 26,
            "POSITION": 25,
            "TANGENT": 27,
            "TEXCOORD_0": 28
          },
          "indices": 29,
          "material": 5,
          "mode": 4
        }
      ]
    },
    {
      "name": "OJO3_1_OJO3_1_0",
      "primitives": [
        {
          "attributes": {
            "NORMAL": 31,
            "POSITION": 30,
            "TANGENT": 32,
            "TEXCOORD_0": 33
          },
          "indices": 34,
          "material": 6,
          "mode": 4
        }
      ]
    }
  ],
  "nodes": [
    {
      "children": [
        1
      ],
      "matrix": [
        1.0,
        0.0,
        0.0,
        0.0,
        0.0,
        -5.053215392444312e-16,
        1.0,
        0.0,
        0.0,
        -1.0,
        -5.053215392444312e-16,
        0.0,
        0.0,
        -1.9250106811523438,
        -0.09500110149383588,
        1.0
      ],
      "name": "Sketchfab_model"
    },
    {
      "children": [
        2
      ],
      "matrix": [
        1.0,
        0.0,
        0.0,
        0.0,
        0.0,
        -1.0,
        0.0,
        0.0,
        0.0,
        0.0,
        -1.0,
        0.0,
        0.0,
        0.0,
        0.0,
        1.0
      ],
      "name": "55629c45da9b4fad92a492fa9527a057.fbx"
    },
    {
      "children": [
        3,
        5,
        7,
        9,
        11,
        13,
        15
      ],
      "name": "RootNode"
    },
    {
      "children": [
        4
      ],
      "matrix": [
        1.0,
        0.0,
        0.0,
        0.0,
        0.0,
        2.220446049250313e-16,
        1.0,
        0.0,
        0.0,
        -1.0,
        2.220446049250313e-16,
        0.0,
        0.0,
        0.0,
        0.0,
        1.0
      ],
      "name": "CIBER_GEISHA_2"
    },
    {
      "mesh": 0,
      "name": "CIBER_GEISHA_2_CIBER_GEISHA_2_0"
    },
    {
      "children": [
        6
      ],
      "matrix": [
        1.0,
        0.0,
        0.0,
        0.0,
        0.0,
        2.220446049250313e-16,
        1.0,
        0.0,
        0.0,
        -1.0,
        2.220446049250313e-16,
        0.0,
        0.0,
        0.0,
        0.0,
        1.0
      ],
      "name": "ROPA_1"
    },
    {
      "mesh": 1,
      "name": "ROPA_1_ROPA_1_0"
    },
    {
      "children": [
        8
      ],
      "matrix": [
        1.0,
        0.0,
        0.0,
        0.0,
        0.0,
        2.220446049250313e-16,
        1.0,
        0.0,
        0.0,
        -1.0,
        2.220446049250313e-16,
        0.0,
        0.0,
        0.0,
        0.0,
        1.0
      ],
      "name": "COSAS_2"
    },
    {
      "mesh": 2,
      "name": "COSAS_2_COSAS_2_0"
    },
    {
      "children": [
        10
      ],
      "matrix": [
        1.0,
        0.0,
        0.0,
        0.0,
        0.0,
        2.220446049250313e-16,
        1.0,
        0.0,
        0.0,
        -1.0,
        2.220446049250313e-16,
        0.0,
        0.0,
        0.0,
        0.0,
        1.0
      ],
      "name": "CILINDRO_1"
    },
    {
      "mesh": 3,
      "name": "CILINDRO_1_CILINDRO_1_0"
    },
    {
      "children": [
        12
      ],
      "matrix": [
        1.0,
        0.0,
        0.0,
        0.0,
        0.0,
        2.220446049250313e-16,
        1.0,
        0.0,
        0.0,
        -1.0,
        2.220446049250313e-16,
        0.0,
        0.0,
        0.0,
        0.0,
        1.0
      ],
      "name": "PELO_1"
    },
    {
      "mesh": 4,
      "name": "PELO_1_PELO_1_0"
    },
    {
      "children": [
        14
      ],
      "matrix": [
        1.0,
        0.0,
        0.0,
        0.0,
        0.0,
        2.220446049250313e-16,
        1.0,
        0.0,
        0.0,
        -1.0,
        2.220446049250313e-16,
        0.0,
        0.0,
        0.0,
        0.0,
        1.0
      ],
      "name": "OJO2_1"
    },
    {
      "mesh": 5,
      "name": "OJO2_1_OJO2_1_0"
    },
    {
      "children": [
        16
      ],
      "matrix": [
        1.0,
        0.0,
        0.0,
        0.0,
        0.0,
        2.220446049250313e-16,
        1.0,
        0.0,
        0.0,
        -1.0,
        2.220446049250313e-16,
        0.0,
        0.0,
        0.0,
        0.0,
        1.0
      ],
      "name": "OJO3_1"
    },
    {
      "mesh": 6,
      "name": "OJO3_1_OJO3_1_0"
    }
  ],
  "samplers": [
    {
      "magFilter": 9729,
      "minFilter": 9987,
      "wrapS": 10497,
      "wrapT": 10497
    }
  ],
  "scene": 0,
  "scenes": [
    {
      "name": "Sketchfab_Scene",
      "nodes": [
        0
      ]
    }
  ],
  "textures": [
    {
      "sampler": 0,
      "source": 0
    },
    {
      "sampler": 0,
      "source": 1
    },
    {
      "sampler": 0,
      "source": 2
    },
    {
      "sampler": 0,
      "source": 3
    },
    {
      "sampler": 0,
      "source": 4
    },
    {
      "sampler": 0,
      "source": 5
    },
    {
      "sampler": 0,
      "source": 6
    },
    {
      "sampler": 0,
      "source": 7
    },
    {
      "sampler": 0,
      "source": 8
    },
    {
      "sampler": 0,
      "source": 9
    },
    {
      "sampler": 0,
      "source": 10
    },
    {
      "sampler": 0,
      "source": 11
    },
    {
      "sampler": 0,
      "source": 12
    },
    {
      "sampler": 0,
      "source": 13
    },
    {
      "sampler": 0,
      "source": 14
    },
    {
      "sampler": 0,
      "source": 15
    },
    {
      "sampler": 0,
      "source": 16
    },
    {
      "sampler": 0,
      "source": 17
    },
    {
      "sampler": 0,
      "source": 18
    },
    {
      "sampler": 0,
      "source": 19
    },
    {
      "sampler": 0,
      "source": 20
    },
    {
      "sampler": 0,
      "source": 21
    }
  ]
}
